<svg width="20" height="20" xmlns="http://www.w3.org/2000/svg">

 <g>
  <title>background</title>
  <rect fill="none" id="canvas_background" height="22" width="22" y="-1" x="-1"/>
 </g>
 <g>
  <title>Layer 1</title>
  <path stroke="null" fill="#ffffff" id="svg_1" d="m9.972988,0.075035c3.482613,0 6.690284,1.832954 8.523238,4.765681l-8.523238,0c0,0 -0.091648,0 -0.091648,0c-2.291193,0.091648 -4.124147,1.558011 -4.765681,3.665909l-2.749432,-4.857329c1.832954,-2.291193 4.582386,-3.574261 7.606761,-3.574261zm0,13.380567c-1.924602,0 -3.390966,-1.558011 -3.390966,-3.390966c0,-1.924602 1.558011,-3.482613 3.390966,-3.482613c1.924602,0 3.390966,1.558011 3.390966,3.390966c0.091648,1.924602 -1.466364,3.482613 -3.390966,3.482613zm-1.649659,6.323693c-4.674034,-0.824829 -8.248295,-4.948977 -8.248295,-9.806306c0,-1.741307 0.458239,-3.390966 1.283068,-4.857329l3.940852,6.781931c0.824829,1.924602 2.657784,3.116022 4.674034,3.116022c0.366591,0 0.824829,-0.091648 1.19142,-0.183295l-2.841079,4.948977zm1.741307,0.091648l3.940852,-6.781931c0.733182,-0.916477 1.099773,-2.01625 1.099773,-3.116022c0,-1.374716 -0.549886,-2.657784 -1.466364,-3.574261l5.682159,0c0.458239,1.099773 0.641534,2.382841 0.641534,3.574261c-0.091648,5.407215 -4.490738,9.897954 -9.897954,9.897954z"/>
 </g>
</svg>